<svg width="89" height="63" viewBox="0 0 89 63" fill="none" xmlns="http://www.w3.org/2000/svg">
<path d="M14.1719 18.25C14.1719 17.7188 14.0885 17.25 13.9219 16.8438C13.7656 16.4271 13.4844 16.0521 13.0781 15.7188C12.6823 15.3854 12.1302 15.0677 11.4219 14.7656C10.724 14.4635 9.83854 14.1562 8.76562 13.8438C7.64062 13.5104 6.625 13.1406 5.71875 12.7344C4.8125 12.3177 4.03646 11.8438 3.39062 11.3125C2.74479 10.7812 2.25 10.1719 1.90625 9.48438C1.5625 8.79688 1.39062 8.01042 1.39062 7.125C1.39062 6.23958 1.57292 5.42188 1.9375 4.67188C2.30208 3.92188 2.82292 3.27083 3.5 2.71875C4.1875 2.15625 5.00521 1.71875 5.95312 1.40625C6.90104 1.09375 7.95833 0.9375 9.125 0.9375C10.8333 0.9375 12.2812 1.26562 13.4688 1.92188C14.6667 2.56771 15.5781 3.41667 16.2031 4.46875C16.8281 5.51042 17.1406 6.625 17.1406 7.8125H14.1406C14.1406 6.95833 13.9583 6.20312 13.5938 5.54688C13.2292 4.88021 12.6771 4.35938 11.9375 3.98438C11.1979 3.59896 10.2604 3.40625 9.125 3.40625C8.05208 3.40625 7.16667 3.56771 6.46875 3.89062C5.77083 4.21354 5.25 4.65104 4.90625 5.20312C4.57292 5.75521 4.40625 6.38542 4.40625 7.09375C4.40625 7.57292 4.50521 8.01042 4.70312 8.40625C4.91146 8.79167 5.22917 9.15104 5.65625 9.48438C6.09375 9.81771 6.64583 10.125 7.3125 10.4062C7.98958 10.6875 8.79688 10.9583 9.73438 11.2188C11.026 11.5833 12.1406 11.9896 13.0781 12.4375C14.0156 12.8854 14.7865 13.3906 15.3906 13.9531C16.0052 14.5052 16.4583 15.1354 16.75 15.8438C17.0521 16.5417 17.2031 17.3333 17.2031 18.2188C17.2031 19.1458 17.0156 19.9844 16.6406 20.7344C16.2656 21.4844 15.7292 22.125 15.0312 22.6562C14.3333 23.1875 13.4948 23.599 12.5156 23.8906C11.5469 24.1719 10.4635 24.3125 9.26562 24.3125C8.21354 24.3125 7.17708 24.1667 6.15625 23.875C5.14583 23.5833 4.22396 23.1458 3.39062 22.5625C2.56771 21.9792 1.90625 21.2604 1.40625 20.4062C0.916667 19.5417 0.671875 18.5417 0.671875 17.4062H3.67188C3.67188 18.1875 3.82292 18.8594 4.125 19.4219C4.42708 19.974 4.83854 20.4323 5.35938 20.7969C5.89062 21.1615 6.48958 21.4323 7.15625 21.6094C7.83333 21.776 8.53646 21.8594 9.26562 21.8594C10.3177 21.8594 11.2083 21.7135 11.9375 21.4219C12.6667 21.1302 13.2188 20.7135 13.5938 20.1719C13.9792 19.6302 14.1719 18.9896 14.1719 18.25ZM23.5 10.3438V30.5H20.5938V7.09375H23.25L23.5 10.3438ZM34.8906 15.4062V15.7344C34.8906 16.9635 34.7448 18.1042 34.4531 19.1562C34.1615 20.1979 33.7344 21.1042 33.1719 21.875C32.6198 22.6458 31.9375 23.2448 31.125 23.6719C30.3125 24.099 29.3802 24.3125 28.3281 24.3125C27.2552 24.3125 26.3073 24.1354 25.4844 23.7812C24.6615 23.4271 23.9635 22.9115 23.3906 22.2344C22.8177 21.5573 22.3594 20.7448 22.0156 19.7969C21.6823 18.849 21.4531 17.7812 21.3281 16.5938V14.8438C21.4531 13.5938 21.6875 12.474 22.0312 11.4844C22.375 10.4948 22.8281 9.65104 23.3906 8.95312C23.9635 8.24479 24.6562 7.70833 25.4688 7.34375C26.2812 6.96875 27.2188 6.78125 28.2812 6.78125C29.3438 6.78125 30.2865 6.98958 31.1094 7.40625C31.9323 7.8125 32.625 8.39583 33.1875 9.15625C33.75 9.91667 34.1719 10.8281 34.4531 11.8906C34.7448 12.9427 34.8906 14.1146 34.8906 15.4062ZM31.9844 15.7344V15.4062C31.9844 14.5625 31.8958 13.7708 31.7188 13.0312C31.5417 12.2812 31.2656 11.625 30.8906 11.0625C30.526 10.4896 30.0573 10.0417 29.4844 9.71875C28.9115 9.38542 28.2292 9.21875 27.4375 9.21875C26.7083 9.21875 26.0729 9.34375 25.5312 9.59375C25 9.84375 24.5469 10.1823 24.1719 10.6094C23.7969 11.026 23.4896 11.5052 23.25 12.0469C23.0208 12.5781 22.849 13.1302 22.7344 13.7031V17.75C22.9427 18.4792 23.2344 19.1667 23.6094 19.8125C23.9844 20.4479 24.4844 20.9635 25.1094 21.3594C25.7344 21.7448 26.5208 21.9375 27.4688 21.9375C28.25 21.9375 28.9219 21.776 29.4844 21.4531C30.0573 21.1198 30.526 20.6667 30.8906 20.0938C31.2656 19.5208 31.5417 18.8646 31.7188 18.125C31.8958 17.375 31.9844 16.5781 31.9844 15.7344ZM41.4688 9.75V24H38.5781V7.09375H41.3906L41.4688 9.75ZM46.75 7L46.7344 9.6875C46.4948 9.63542 46.2656 9.60417 46.0469 9.59375C45.8385 9.57292 45.599 9.5625 45.3281 9.5625C44.6615 9.5625 44.0729 9.66667 43.5625 9.875C43.0521 10.0833 42.6198 10.375 42.2656 10.75C41.9115 11.125 41.6302 11.5729 41.4219 12.0938C41.224 12.6042 41.0938 13.1667 41.0312 13.7812L40.2188 14.25C40.2188 13.2292 40.3177 12.2708 40.5156 11.375C40.724 10.4792 41.0417 9.6875 41.4688 9C41.8958 8.30208 42.4375 7.76042 43.0938 7.375C43.7604 6.97917 44.5521 6.78125 45.4688 6.78125C45.6771 6.78125 45.9167 6.80729 46.1875 6.85938C46.4583 6.90104 46.6458 6.94792 46.75 7ZM52.5625 7.09375V24H49.6562V7.09375H52.5625ZM49.4375 2.60938C49.4375 2.14062 49.5781 1.74479 49.8594 1.42188C50.151 1.09896 50.5781 0.9375 51.1406 0.9375C51.6927 0.9375 52.1146 1.09896 52.4062 1.42188C52.7083 1.74479 52.8594 2.14062 52.8594 2.60938C52.8594 3.05729 52.7083 3.44271 52.4062 3.76562C52.1146 4.07812 51.6927 4.23438 51.1406 4.23438C50.5781 4.23438 50.151 4.07812 49.8594 3.76562C49.5781 3.44271 49.4375 3.05729 49.4375 2.60938ZM60.0938 10.7031V24H57.2031V7.09375H59.9375L60.0938 10.7031ZM59.4062 14.9062L58.2031 14.8594C58.2135 13.7031 58.3854 12.6354 58.7188 11.6562C59.0521 10.6667 59.5208 9.80729 60.125 9.07812C60.7292 8.34896 61.4479 7.78646 62.2812 7.39062C63.125 6.98438 64.0573 6.78125 65.0781 6.78125C65.9115 6.78125 66.6615 6.89583 67.3281 7.125C67.9948 7.34375 68.5625 7.69792 69.0312 8.1875C69.5104 8.67708 69.875 9.3125 70.125 10.0938C70.375 10.8646 70.5 11.8073 70.5 12.9219V24H67.5938V12.8906C67.5938 12.0052 67.4635 11.2969 67.2031 10.7656C66.9427 10.224 66.5625 9.83333 66.0625 9.59375C65.5625 9.34375 64.9479 9.21875 64.2188 9.21875C63.5 9.21875 62.8438 9.36979 62.25 9.67188C61.6667 9.97396 61.1615 10.3906 60.7344 10.9219C60.3177 11.4531 59.9896 12.0625 59.75 12.75C59.5208 13.4271 59.4062 14.1458 59.4062 14.9062ZM85.8438 7.09375H88.4688V23.6406C88.4688 25.1302 88.1667 26.401 87.5625 27.4531C86.9583 28.5052 86.1146 29.3021 85.0312 29.8438C83.9583 30.3958 82.7188 30.6719 81.3125 30.6719C80.7292 30.6719 80.0417 30.5781 79.25 30.3906C78.4688 30.2135 77.6979 29.9062 76.9375 29.4688C76.1875 29.0417 75.5573 28.4635 75.0469 27.7344L76.5625 26.0156C77.2708 26.8698 78.0104 27.4635 78.7812 27.7969C79.5625 28.1302 80.3333 28.2969 81.0938 28.2969C82.0104 28.2969 82.8021 28.125 83.4688 27.7812C84.1354 27.4375 84.651 26.9271 85.0156 26.25C85.3906 25.5833 85.5781 24.7604 85.5781 23.7812V10.8125L85.8438 7.09375ZM74.2031 15.7344V15.4062C74.2031 14.1146 74.3542 12.9427 74.6562 11.8906C74.9688 10.8281 75.4115 9.91667 75.9844 9.15625C76.5677 8.39583 77.2708 7.8125 78.0938 7.40625C78.9167 6.98958 79.8438 6.78125 80.875 6.78125C81.9375 6.78125 82.8646 6.96875 83.6562 7.34375C84.4583 7.70833 85.1354 8.24479 85.6875 8.95312C86.25 9.65104 86.6927 10.4948 87.0156 11.4844C87.3385 12.474 87.5625 13.5938 87.6875 14.8438V16.2812C87.5729 17.5208 87.349 18.6354 87.0156 19.625C86.6927 20.6146 86.25 21.4583 85.6875 22.1562C85.1354 22.8542 84.4583 23.3906 83.6562 23.7656C82.8542 24.1302 81.9167 24.3125 80.8438 24.3125C79.8333 24.3125 78.9167 24.099 78.0938 23.6719C77.2812 23.2448 76.5833 22.6458 76 21.875C75.4167 21.1042 74.9688 20.1979 74.6562 19.1562C74.3542 18.1042 74.2031 16.9635 74.2031 15.7344ZM77.0938 15.4062V15.7344C77.0938 16.5781 77.1771 17.3698 77.3438 18.1094C77.5208 18.849 77.7865 19.5 78.1406 20.0625C78.5052 20.625 78.9688 21.0677 79.5312 21.3906C80.0938 21.7031 80.7656 21.8594 81.5469 21.8594C82.5052 21.8594 83.2969 21.6562 83.9219 21.25C84.5469 20.8438 85.0417 20.3073 85.4062 19.6406C85.7812 18.974 86.0729 18.25 86.2812 17.4688V13.7031C86.1667 13.1302 85.9896 12.5781 85.75 12.0469C85.5208 11.5052 85.2188 11.026 84.8438 10.6094C84.4792 10.1823 84.026 9.84375 83.4844 9.59375C82.9427 9.34375 82.3073 9.21875 81.5781 9.21875C80.7865 9.21875 80.1042 9.38542 79.5312 9.71875C78.9688 10.0417 78.5052 10.4896 78.1406 11.0625C77.7865 11.625 77.5208 12.2812 77.3438 13.0312C77.1771 13.7708 77.0938 14.5625 77.0938 15.4062ZM26.2969 51.3594H20.5312L20.5 48.9375H25.7344C26.599 48.9375 27.3542 48.7917 28 48.5C28.6458 48.2083 29.1458 47.7917 29.5 47.25C29.8646 46.6979 30.0469 46.0417 30.0469 45.2812C30.0469 44.4479 29.8854 43.7708 29.5625 43.25C29.25 42.7188 28.7656 42.3333 28.1094 42.0938C27.4635 41.8438 26.6406 41.7188 25.6406 41.7188H21.2031V62H18.1875V39.25H25.6406C26.8073 39.25 27.849 39.3698 28.7656 39.6094C29.6823 39.8385 30.4583 40.2031 31.0938 40.7031C31.7396 41.1927 32.2292 41.8177 32.5625 42.5781C32.8958 43.3385 33.0625 44.25 33.0625 45.3125C33.0625 46.25 32.8229 47.099 32.3438 47.8594C31.8646 48.6094 31.1979 49.224 30.3438 49.7031C29.5 50.1823 28.5104 50.4896 27.375 50.625L26.2969 51.3594ZM26.1562 62H19.3438L21.0469 59.5469H26.1562C27.1146 59.5469 27.9271 59.3802 28.5938 59.0469C29.2708 58.7135 29.7865 58.2448 30.1406 57.6406C30.4948 57.026 30.6719 56.3021 30.6719 55.4688C30.6719 54.625 30.5208 53.8958 30.2188 53.2812C29.9167 52.6667 29.4427 52.1927 28.7969 51.8594C28.151 51.526 27.3177 51.3594 26.2969 51.3594H22L22.0312 48.9375H27.9062L28.5469 49.8125C29.6406 49.9062 30.5677 50.2188 31.3281 50.75C32.0885 51.2708 32.6667 51.9375 33.0625 52.75C33.4688 53.5625 33.6719 54.4583 33.6719 55.4375C33.6719 56.8542 33.3594 58.0521 32.7344 59.0312C32.1198 60 31.25 60.7396 30.125 61.25C29 61.75 27.6771 62 26.1562 62ZM36.9219 53.7344V53.375C36.9219 52.1562 37.099 51.026 37.4531 49.9844C37.8073 48.9323 38.3177 48.0208 38.9844 47.25C39.651 46.4688 40.4583 45.8646 41.4062 45.4375C42.3542 45 43.4167 44.7812 44.5938 44.7812C45.7812 44.7812 46.849 45 47.7969 45.4375C48.7552 45.8646 49.5677 46.4688 50.2344 47.25C50.9115 48.0208 51.4271 48.9323 51.7812 49.9844C52.1354 51.026 52.3125 52.1562 52.3125 53.375V53.7344C52.3125 54.9531 52.1354 56.0833 51.7812 57.125C51.4271 58.1667 50.9115 59.0781 50.2344 59.8594C49.5677 60.6302 48.7604 61.2344 47.8125 61.6719C46.875 62.099 45.8125 62.3125 44.625 62.3125C43.4375 62.3125 42.3698 62.099 41.4219 61.6719C40.474 61.2344 39.6615 60.6302 38.9844 59.8594C38.3177 59.0781 37.8073 58.1667 37.4531 57.125C37.099 56.0833 36.9219 54.9531 36.9219 53.7344ZM39.8125 53.375V53.7344C39.8125 54.5781 39.9115 55.375 40.1094 56.125C40.3073 56.8646 40.6042 57.5208 41 58.0938C41.4062 58.6667 41.9115 59.1198 42.5156 59.4531C43.1198 59.776 43.8229 59.9375 44.625 59.9375C45.4167 59.9375 46.1094 59.776 46.7031 59.4531C47.3073 59.1198 47.8073 58.6667 48.2031 58.0938C48.599 57.5208 48.8958 56.8646 49.0938 56.125C49.3021 55.375 49.4062 54.5781 49.4062 53.7344V53.375C49.4062 52.5417 49.3021 51.7552 49.0938 51.0156C48.8958 50.2656 48.5938 49.6042 48.1875 49.0312C47.7917 48.4479 47.2917 47.9896 46.6875 47.6562C46.0938 47.3229 45.3958 47.1562 44.5938 47.1562C43.8021 47.1562 43.1042 47.3229 42.5 47.6562C41.9062 47.9896 41.4062 48.4479 41 49.0312C40.6042 49.6042 40.3073 50.2656 40.1094 51.0156C39.9115 51.7552 39.8125 52.5417 39.8125 53.375ZM55.1719 53.7344V53.375C55.1719 52.1562 55.349 51.026 55.7031 49.9844C56.0573 48.9323 56.5677 48.0208 57.2344 47.25C57.901 46.4688 58.7083 45.8646 59.6562 45.4375C60.6042 45 61.6667 44.7812 62.8438 44.7812C64.0312 44.7812 65.099 45 66.0469 45.4375C67.0052 45.8646 67.8177 46.4688 68.4844 47.25C69.1615 48.0208 69.6771 48.9323 70.0312 49.9844C70.3854 51.026 70.5625 52.1562 70.5625 53.375V53.7344C70.5625 54.9531 70.3854 56.0833 70.0312 57.125C69.6771 58.1667 69.1615 59.0781 68.4844 59.8594C67.8177 60.6302 67.0104 61.2344 66.0625 61.6719C65.125 62.099 64.0625 62.3125 62.875 62.3125C61.6875 62.3125 60.6198 62.099 59.6719 61.6719C58.724 61.2344 57.9115 60.6302 57.2344 59.8594C56.5677 59.0781 56.0573 58.1667 55.7031 57.125C55.349 56.0833 55.1719 54.9531 55.1719 53.7344ZM58.0625 53.375V53.7344C58.0625 54.5781 58.1615 55.375 58.3594 56.125C58.5573 56.8646 58.8542 57.5208 59.25 58.0938C59.6562 58.6667 60.1615 59.1198 60.7656 59.4531C61.3698 59.776 62.0729 59.9375 62.875 59.9375C63.6667 59.9375 64.3594 59.776 64.9531 59.4531C65.5573 59.1198 66.0573 58.6667 66.4531 58.0938C66.849 57.5208 67.1458 56.8646 67.3438 56.125C67.5521 55.375 67.6562 54.5781 67.6562 53.7344V53.375C67.6562 52.5417 67.5521 51.7552 67.3438 51.0156C67.1458 50.2656 66.8438 49.6042 66.4375 49.0312C66.0417 48.4479 65.5417 47.9896 64.9375 47.6562C64.3438 47.3229 63.6458 47.1562 62.8438 47.1562C62.0521 47.1562 61.3542 47.3229 60.75 47.6562C60.1562 47.9896 59.6562 48.4479 59.25 49.0312C58.8542 49.6042 58.5573 50.2656 58.3594 51.0156C58.1615 51.7552 58.0625 52.5417 58.0625 53.375ZM81.2656 45.0938V47.3125H72.125V45.0938H81.2656ZM75.2188 40.9844H78.1094V57.8125C78.1094 58.3854 78.1979 58.8177 78.375 59.1094C78.5521 59.401 78.7812 59.5938 79.0625 59.6875C79.3438 59.7812 79.6458 59.8281 79.9688 59.8281C80.2083 59.8281 80.4583 59.8073 80.7188 59.7656C80.9896 59.7135 81.1927 59.6719 81.3281 59.6406L81.3438 62C81.1146 62.0729 80.8125 62.1406 80.4375 62.2031C80.0729 62.276 79.6302 62.3125 79.1094 62.3125C78.401 62.3125 77.75 62.1719 77.1562 61.8906C76.5625 61.6094 76.0885 61.1406 75.7344 60.4844C75.3906 59.8177 75.2188 58.9219 75.2188 57.7969V40.9844Z" fill="#6DB33F"/>
</svg>
